<svg id="visual" viewBox="0 0 960 540" width="960" height="540" xmlns="http://www.w3.org/2000/svg" xmlns:xlink="http://www.w3.org/1999/xlink" version="1.1"><path d="M0 317L22.8 326.7C45.7 336.3 91.3 355.7 137 365.3C182.7 375 228.3 375 274 365C319.7 355 365.3 335 411.2 339.7C457 344.3 503 373.7 548.8 384.7C594.7 395.7 640.3 388.3 686 382.5C731.7 376.7 777.3 372.3 823 366.7C868.7 361 914.3 354 937.2 350.5L960 347L960 541L937.2 541C914.3 541 868.7 541 823 541C777.3 541 731.7 541 686 541C640.3 541 594.7 541 548.8 541C503 541 457 541 411.2 541C365.3 541 319.7 541 274 541C228.3 541 182.7 541 137 541C91.3 541 45.7 541 22.8 541L0 541Z" fill="#715df2"></path><path d="M0 417L22.8 414.5C45.7 412 91.3 407 137 407.7C182.7 408.3 228.3 414.7 274 417.3C319.7 420 365.3 419 411.2 414.5C457 410 503 402 548.8 398.2C594.7 394.3 640.3 394.7 686 395C731.7 395.3 777.3 395.7 823 398.2C868.7 400.7 914.3 405.3 937.2 407.7L960 410L960 541L937.2 541C914.3 541 868.7 541 823 541C777.3 541 731.7 541 686 541C640.3 541 594.7 541 548.8 541C503 541 457 541 411.2 541C365.3 541 319.7 541 274 541C228.3 541 182.7 541 137 541C91.3 541 45.7 541 22.8 541L0 541Z" fill="#5b4ab5"></path><path d="M0 401L22.8 399.8C45.7 398.7 91.3 396.3 137 396.3C182.7 396.3 228.3 398.7 274 405C319.7 411.3 365.3 421.7 411.2 427.3C457 433 503 434 548.8 432.8C594.7 431.7 640.3 428.3 686 426C731.7 423.7 777.3 422.3 823 417.2C868.7 412 914.3 403 937.2 398.5L960 394L960 541L937.2 541C914.3 541 868.7 541 823 541C777.3 541 731.7 541 686 541C640.3 541 594.7 541 548.8 541C503 541 457 541 411.2 541C365.3 541 319.7 541 274 541C228.3 541 182.7 541 137 541C91.3 541 45.7 541 22.8 541L0 541Z" fill="#45387b"></path><path d="M0 474L22.8 473C45.7 472 91.3 470 137 466.5C182.7 463 228.3 458 274 455C319.7 452 365.3 451 411.2 448.5C457 446 503 442 548.8 444C594.7 446 640.3 454 686 457.3C731.7 460.7 777.3 459.3 823 457.8C868.7 456.3 914.3 454.7 937.2 453.8L960 453L960 541L937.2 541C914.3 541 868.7 541 823 541C777.3 541 731.7 541 686 541C640.3 541 594.7 541 548.8 541C503 541 457 541 411.2 541C365.3 541 319.7 541 274 541C228.3 541 182.7 541 137 541C91.3 541 45.7 541 22.8 541L0 541Z" fill="#2e2746"></path><path d="M0 484L22.8 482.3C45.7 480.7 91.3 477.3 137 478.2C182.7 479 228.3 484 274 484.8C319.7 485.7 365.3 482.3 411.2 484.3C457 486.3 503 493.7 548.8 495C594.7 496.3 640.3 491.7 686 487C731.7 482.3 777.3 477.7 823 478.8C868.7 480 914.3 487 937.2 490.5L960 494L960 541L937.2 541C914.3 541 868.7 541 823 541C777.3 541 731.7 541 686 541C640.3 541 594.7 541 548.8 541C503 541 457 541 411.2 541C365.3 541 319.7 541 274 541C228.3 541 182.7 541 137 541C91.3 541 45.7 541 22.8 541L0 541Z" fill="#161616"></path></svg>