<?xml version="1.0" encoding="UTF-8"?>
<!-- Created with Inkscape (http://www.inkscape.org/) -->
<svg width="120" height="120" version="1.1" viewBox="0 0 120 120" xmlns="http://www.w3.org/2000/svg" xmlns:xlink="http://www.w3.org/1999/xlink">
 <defs>
  <radialGradient id="radialGradient7" cx="55.823" cy="31.973" r="29.52" gradientTransform="matrix(1.2449 .0049333 -.0039453 .99557 -12.393 4.1896)" gradientUnits="userSpaceOnUse">
   <stop stop-color="#504e3e" offset="0"/>
   <stop stop-color="#333" offset="1"/>
  </radialGradient>
  <linearGradient id="linearGradient12" x1="34.792" x2="56.41" y1="52.994" y2="52.994" gradientUnits="userSpaceOnUse">
   <stop stop-color="#ff0" offset="0"/>
   <stop stop-color="#ffd000" offset="1"/>
  </linearGradient>
  <radialGradient id="radialGradient14" cx="55.827" cy="97.378" r="48.853" gradientTransform="matrix(1 0 0 .66227 0 32.887)" gradientUnits="userSpaceOnUse">
   <stop stop-color="#50006a" offset="0"/>
   <stop stop-color="#272644" offset="1"/>
  </radialGradient>
 </defs>
 <g>
  <path d="m22.753 92.681-12.316-33.19 4.3835-48.428 13.568 3.7573 11.481-8.1409 11.063 11.272 5.0098-13.986 41.122 3.3398 15.655 30.059-18.995 29.432 15.655 25.258-19.622 14.612-33.19-11.689-25.258 7.7234z" fill="#535190"/>
  <path d="m13.875 94.908 18.598-14.465 5.3965 6.9384 28.745-22.357 16.301 20.958 10.678-8.3054 11.087 14.255-9.5237 7.4073 8.4962 10.924-4.6801 3.6401-0.21459-0.2759-11.486 8.9333-4.2441-5.4567-16.237 12.629-9.3227-11.986-11.016 8.5677-10.944-14.071-16.033 12.47-12.502-16.074 5.7428-4.4666 6.9464 8.931 5.0991-3.9659-11-14.142z" fill="url(#radialGradient14)"/>
 </g>
 <path transform="matrix(.56601 0 0 .56601 47.511 21.247)" d="m21.107 41.181c3.2636-0.54764 2.3484 4.1291 0.91021 5.4244-3.8973 3.51-9.716 0.37426-11.759-3.6039-3.6544-7.116 1.205-15.369 8.1181-18.093 10.145-3.9976 21.118 2.7796 24.428 12.632 4.4114 13.132-4.3491 26.903-17.146 30.763-16.104 4.8565-32.706-5.9153-37.097-21.66-5.3179-19.07 7.4795-38.519 26.175-43.432 22.032-5.7889 44.339 9.0425 49.766 30.689 6.266 24.992-10.605 50.163-35.203 56.101-27.95 6.7472-55.99-12.166-62.435-39.717-7.2313-30.908 13.727-61.818 44.231-68.77 33.865-7.7175 67.649 15.288 75.105 48.745" fill="none" stroke="#e3ff07"/>
 <path d="m28.782 103.91 12.103-31.882s-11.513-37.638-9.5941-39.852c1.9188-2.214 46.642-1.3284 46.642-1.3284l7.5277 18.598-5.3137 39.557 7.6753 19.779-33.506 3.9852z" fill="url(#radialGradient7)"/>
 <text transform="translate(1.1243e-8 -5.0185)" fill="url(#linearGradient12)" font-family="Arial" font-size="29.333px" font-weight="900" style="shape-inside:url(#rect11);white-space:pre" xml:space="preserve"><tspan x="35.128906" y="72.055478">WS</tspan></text>
 <path transform="translate(6.1993 2.0664)" d="m24.354 27.601 8.7728-3.9775-0.61474-9.6128 6.4938 7.1143 8.9523-3.5552-4.7594 8.3744 6.1476 7.4155-9.4353-1.9387-5.1529 8.1382-1.0719-9.5726z" fill="#f0f"/>
 <path d="m71.811 13.874a14.698 13.727 0 0 0-8.3327 2.4468 12.393 11.439 0 0 1 10.35 11.28 12.393 11.439 0 0 1-10.361 11.276 14.698 13.727 0 0 0 8.3441 2.4522 14.698 13.727 0 0 0 14.699-13.728 14.698 13.727 0 0 0-14.699-13.726z" fill="#0ff" stroke-width=".94347"/>
</svg>
